<svg xmlns="http://www.w3.org/2000/svg" version="1.1" xmlns:xlink="http://www.w3.org/1999/xlink" xmlns:svgjs="http://svgjs.dev/svgjs" width="3840" height="2000" preserveAspectRatio="none" viewBox="0 0 3840 2000"><g mask="url(&quot;#SvgjsMask1057&quot;)" fill="none"><rect width="3840" height="2000" x="0" y="0" fill="rgba(252, 230, 212, 1)"></rect><path d="M984.523,1487.304C1091.049,1485.361,1153.87,1381.334,1207.503,1289.274C1261.674,1196.292,1324.81,1088.329,1271.383,994.918C1217.755,901.156,1092.538,899.655,984.523,899.418C875.906,899.18,751.112,900.369,695.475,993.654C639.045,1088.268,691.33,1202.608,746.994,1297.674C801.862,1391.379,875.954,1489.284,984.523,1487.304" fill="rgba(1, 77, 174, 0.08)" class="triangle-float3"></path><path d="M3725.855,1882.127C3891.19,1890.493,4076.477,1874.454,4165.131,1734.646C4258.26,1587.782,4217.057,1398.198,4127.093,1249.375C4040.548,1106.209,3893.014,1001.318,3725.855,1007.976C3567.926,1014.266,3451.214,1140.046,3376.406,1279.275C3306.242,1409.86,3283.033,1565.52,3357.376,1693.772C3431.521,1821.683,3578.197,1874.655,3725.855,1882.127" fill="rgba(1, 77, 174, 0.08)" class="triangle-float3"></path><path d="M3612.6683941332262 529.1539980101352L4017.6253290162563 357.25997750285603 3845.7313085089772-47.696957380174126 3440.774373625947 124.19706312710503z" fill="rgba(1, 77, 174, 0.08)" class="triangle-float1"></path><path d="M2347.4458103890747 1543.833499429028L2516.2542957910605 1127.1615650407048 2126.1900643897065 1175.0554304172492z" fill="rgba(1, 77, 174, 0.08)" class="triangle-float3"></path><path d="M3440.3432393223457 2284.9348400351982L3655.9118912719327 1911.558982339382 3066.9673816265295 2069.366188085611z" fill="rgba(1, 77, 174, 0.08)" class="triangle-float3"></path><path d="M591.846,643.118C692.02,649.159,790.79,593.032,835.378,503.125C876.298,420.615,837.091,327.125,786.835,249.945C742.116,181.268,673.789,130.433,591.846,129.121C507.638,127.773,427.355,170.308,385.738,243.526C344.574,315.947,356.191,402.497,394.377,476.531C436.688,558.562,499.713,637.562,591.846,643.118" fill="rgba(1, 77, 174, 0.08)" class="triangle-float2"></path><path d="M2709.212659562543 471.5596220290187L2186.0506481654656 407.32340417854823 2121.814430314995 930.4854155756259 2644.9764417120728 994.7216334260963z" fill="rgba(1, 77, 174, 0.08)" class="triangle-float2"></path><path d="M985.8589860812068 328.10353183240846L499.4058085178378 197.75879574875017 369.06107243417944 684.2119733121192 855.5142499975485 814.5567093957775z" fill="rgba(1, 77, 174, 0.08)" class="triangle-float2"></path></g><defs><mask id="SvgjsMask1057"><rect width="3840" height="2000" fill="#ffffff"></rect></mask><style>
                @keyframes float1 {
                    0%{transform: translate(0, 0)}
                    50%{transform: translate(-10px, 0)}
                    100%{transform: translate(0, 0)}
                }

                .triangle-float1 {
                    animation: float1 5s infinite;
                }

                @keyframes float2 {
                    0%{transform: translate(0, 0)}
                    50%{transform: translate(-5px, -5px)}
                    100%{transform: translate(0, 0)}
                }

                .triangle-float2 {
                    animation: float2 4s infinite;
                }

                @keyframes float3 {
                    0%{transform: translate(0, 0)}
                    50%{transform: translate(0, -10px)}
                    100%{transform: translate(0, 0)}
                }

                .triangle-float3 {
                    animation: float3 6s infinite;
                }
            </style></defs></svg>